<svg width="3580" height="1497" xmlns="http://www.w3.org/2000/svg" xmlns:xlink="http://www.w3.org/1999/xlink" xml:space="preserve" overflow="hidden"><g transform="translate(-407 -685)"><path d="M1152.67 1228.5 1346.33 1228.5 1507.5 1389.67 1507.5 1781.5 1507.5 1781.5 991.5 1781.5 991.5 1781.5 991.5 1389.67Z" stroke="#2F528F" stroke-width="4.58333" stroke-miterlimit="8" fill="#4472C4" fill-rule="evenodd"/><path d="M0 0 10.5803 781.89" stroke="#3B3838" stroke-width="13.75" stroke-miterlimit="8" stroke-dasharray="13.75 13.75" fill="none" fill-rule="evenodd" transform="matrix(1 0 0 -1 1244 1600.89)"/><path d="M0 0 762.663 762.663" stroke="#3B3838" stroke-width="13.75" stroke-miterlimit="8" stroke-dasharray="13.75 13.75" fill="none" fill-rule="evenodd" transform="matrix(1 0 0 -1 1126 1607.66)"/><path d="M1222 1500C1222 1487.85 1232.07 1478 1244.5 1478 1256.93 1478 1267 1487.85 1267 1500 1267 1512.15 1256.93 1522 1244.5 1522 1232.07 1522 1222 1512.15 1222 1500Z" fill="#FF0000" fill-rule="evenodd"/><rect x="407" y="685" width="1719" height="149" fill="#548235"/><text font-family="Calibri,Calibri_MSFontService,sans-serif" font-weight="400" font-size="110" transform="matrix(1 0 0 1 1189.18 1080)">F</text><text font-family="Calibri,Calibri_MSFontService,sans-serif" font-weight="400" font-size="110" transform="matrix(1 0 0 1 1180.76 1391)">a</text><text font-family="Calibri,Calibri_MSFontService,sans-serif" font-weight="400" font-size="110" transform="matrix(1 0 0 1 1690.44 1177)">S</text><text font-family="Calibri,Calibri_MSFontService,sans-serif" font-weight="400" font-size="110" transform="matrix(1 0 0 1 1368.87 1472)">b</text><path d="M3022.02 1438.28 3158.72 1301.13 3386.61 1300.74 3664.15 1577.36 3664.15 1577.36 3299.95 1942.78 3299.95 1942.78 3022.41 1666.17Z" stroke="#2F528F" stroke-width="4.58333" stroke-miterlimit="8" fill="#4472C4" fill-rule="evenodd"/><path d="M3350.48 1636.39 2562 829" stroke="#3B3838" stroke-width="13.75" stroke-miterlimit="8" stroke-dasharray="13.75 13.75" fill="none" fill-rule="evenodd"/><path d="M3271.52 1724.81 3270 817" stroke="#3B3838" stroke-width="13.75" stroke-miterlimit="8" stroke-dasharray="13.75 13.75" fill="none" fill-rule="evenodd"/><path d="M3263.83 1580.94C3255.17 1572.31 3255.15 1558.3 3263.77 1549.64 3272.4 1540.99 3286.41 1540.96 3295.07 1549.59 3303.72 1558.22 3303.75 1572.23 3295.12 1580.88 3286.49 1589.54 3272.48 1589.56 3263.83 1580.94Z" fill="#FF0000" fill-rule="evenodd"/><rect x="2268" y="685" width="1719" height="149" fill="#548235"/><text font-family="Calibri,Calibri_MSFontService,sans-serif" font-weight="400" font-size="110" transform="matrix(1 0 0 1 2735.26 1187)">F</text><text font-family="Calibri,Calibri_MSFontService,sans-serif" font-weight="400" font-size="110" transform="matrix(1 0 0 1 3115.08 1533)">a</text><text font-family="Calibri,Calibri_MSFontService,sans-serif" font-weight="400" font-size="110" transform="matrix(1 0 0 1 3310.74 1126)">S</text><text font-family="Calibri,Calibri_MSFontService,sans-serif" font-weight="400" font-size="110" transform="matrix(1 0 0 1 3306.45 1462)">b</text><path d="M970.369 2052.27C980.824 2055.03 988.854 2060.98 994.458 2070.13 1000.06 2079.28 1002.86 2090.32 1002.86 2103.24 1002.86 2116.2 1000.07 2127.24 994.485 2136.35 988.899 2145.47 980.86 2151.4 970.369 2154.16L969.079 2150.02C977.351 2147.27 983.501 2141.82 987.529 2133.7 991.557 2125.57 993.572 2115.24 993.572 2102.71 993.572 2090.6 991.567 2080.55 987.556 2072.55 983.546 2064.54 977.333 2059.16 968.918 2056.41ZM697.236 2052.27 698.687 2056.41C690.308 2059.16 684.104 2064.54 680.076 2072.55 676.047 2080.55 674.033 2090.6 674.033 2102.71 674.033 2115.24 676.047 2125.57 680.076 2133.7 684.104 2141.82 690.254 2147.27 698.525 2150.02L697.236 2154.16C686.745 2151.4 678.706 2145.47 673.12 2136.35 667.534 2127.24 664.741 2116.2 664.741 2103.24 664.741 2090.32 667.543 2079.28 673.147 2070.13 678.751 2060.98 686.781 2055.03 697.236 2052.27Z" fill-rule="evenodd"/><path d="M717.857 2061.31 766.304 2061.31 762.598 2077.8 757.442 2077.8C757.299 2075.04 757.075 2072.87 756.771 2071.27 756.466 2069.68 756.037 2068.54 755.482 2067.84 754.927 2067.14 754.255 2066.66 753.467 2066.41 752.68 2066.16 751.498 2066.04 749.922 2066.04L733.38 2066.04 726.988 2095.26 737.032 2095.26C738.607 2095.26 739.914 2095.04 740.953 2094.61 741.991 2094.18 742.958 2093.4 743.853 2092.28 744.748 2091.15 745.858 2089.22 747.183 2086.5L752.071 2086.5 746.861 2109.17 742.134 2109.17C742.134 2105.55 742.018 2103.29 741.785 2102.37 741.553 2101.46 741.105 2100.83 740.443 2100.49 739.78 2100.15 738.464 2099.98 736.495 2099.98L725.967 2099.98 721.724 2119C720.972 2122.36 720.596 2125.16 720.596 2127.38 720.596 2128.49 720.775 2129.35 721.133 2129.98 721.492 2130.61 722.029 2131.06 722.745 2131.35 723.461 2131.64 724.696 2131.85 726.451 2131.99L725.86 2134.63 703.785 2134.63 704.376 2131.99C705.736 2131.78 706.757 2131.43 707.437 2130.95 708.117 2130.46 708.69 2129.79 709.156 2128.93 709.621 2128.07 710.051 2127.03 710.445 2125.79 710.839 2124.56 711.43 2122.17 712.217 2118.62L721.348 2077.26C722.136 2073.68 722.53 2070.85 722.53 2068.78 722.53 2067.02 722.118 2065.8 721.295 2065.12 720.471 2064.44 719.128 2064.05 717.266 2063.94Z" fill-rule="evenodd"/><text fill="#000000" fill-opacity="0" font-family="Arial,Arial_MSFontService,sans-serif" font-size="73.3154" x="703.785" y="2125.46">𝐹</text><path d="M833.79 2068.67 841.417 2068.67 841.417 2099.61 870.69 2099.61 870.69 2106.75 841.417 2106.75 841.417 2137.69 833.79 2137.69 833.79 2106.75 804.518 2106.75 804.518 2099.61 833.79 2099.61Z" fill-rule="evenodd"/><text fill="#000000" fill-opacity="0" font-family="Arial,Arial_MSFontService,sans-serif" font-size="69.0186" x="804.518" y="2129.06">+</text><path d="M937.323 2086.61C933.635 2086.61 930.322 2088.09 927.386 2091.07 924.45 2094.04 922.158 2098.02 920.511 2103.02 918.864 2108.01 918.041 2113 918.041 2117.98 918.041 2121.7 918.551 2124.48 919.571 2126.33 920.592 2128.17 922.302 2129.09 924.701 2129.09 927.064 2129.09 929.383 2128.07 931.656 2126.03 933.93 2123.99 936.275 2121.08 938.692 2117.3 941.109 2113.53 942.819 2109.17 943.822 2104.23L944.305 2101.92C944.627 2100.45 944.842 2099.18 944.95 2098.1 945.057 2097.03 945.111 2095.86 945.111 2094.61 945.111 2091.85 944.52 2089.83 943.338 2088.54 942.157 2087.25 940.152 2086.61 937.323 2086.61ZM936.249 2082.37C938.576 2082.37 940.751 2082.63 942.774 2083.14 944.798 2083.66 946.883 2084.59 949.032 2085.91L953.973 2082.37 957.411 2083.23 949.515 2117.28C948.727 2120.68 948.333 2123.33 948.333 2125.23 948.333 2126.66 948.566 2127.7 949.032 2128.34 949.497 2128.99 950.231 2129.31 951.234 2129.31 952.308 2129.31 953.454 2128.87 954.671 2127.99 955.889 2127.12 957.608 2125.44 959.828 2122.97L962.889 2125.98C959.667 2129.42 956.918 2131.86 954.645 2133.31 952.371 2134.76 949.909 2135.49 947.259 2135.49 945.039 2135.49 943.267 2134.75 941.942 2133.28 940.617 2131.82 939.955 2129.86 939.955 2127.43 939.955 2125.46 940.366 2123.36 941.19 2121.15L940.492 2120.93C937.054 2125.94 933.796 2129.61 930.716 2131.94 927.637 2134.27 924.378 2135.43 920.941 2135.43 917.002 2135.43 913.95 2133.95 911.783 2130.97 909.617 2128 908.534 2123.83 908.534 2118.46 908.534 2112.3 909.742 2106.38 912.159 2100.71 914.576 2095.03 917.897 2090.56 922.123 2087.28 926.348 2084 931.056 2082.37 936.249 2082.37Z" fill-rule="evenodd"/><text fill="#000000" fill-opacity="0" font-family="Arial,Arial_MSFontService,sans-serif" font-size="53.1201" x="908.534" y="2128.85">𝑎</text><path d="M1051.08 2110.78 1117.25 2110.78 1117.25 2117.92 1051.08 2117.92ZM1051.08 2088.49 1117.25 2088.49 1117.25 2095.63 1051.08 2095.63Z" fill-rule="evenodd"/><text fill="#000000" fill-opacity="0" font-family="Arial,Arial_MSFontService,sans-serif" font-size="29.4336" x="1051.08" y="2114.24">=</text><path d="M1458.1 2052.27C1468.56 2055.03 1476.59 2060.98 1482.19 2070.13 1487.8 2079.28 1490.6 2090.32 1490.6 2103.24 1490.6 2116.2 1487.81 2127.24 1482.22 2136.35 1476.63 2145.47 1468.6 2151.4 1458.1 2154.16L1456.81 2150.02C1465.09 2147.27 1471.24 2141.82 1475.26 2133.7 1479.29 2125.57 1481.31 2115.24 1481.31 2102.71 1481.31 2090.6 1479.3 2080.55 1475.29 2072.55 1471.28 2064.54 1465.07 2059.16 1456.65 2056.41ZM1197.71 2052.27 1199.16 2056.41C1190.78 2059.16 1184.58 2064.54 1180.55 2072.55 1176.52 2080.55 1174.51 2090.6 1174.51 2102.71 1174.51 2115.24 1176.52 2125.57 1180.55 2133.7 1184.58 2141.82 1190.73 2147.27 1199 2150.02L1197.71 2154.16C1187.22 2151.4 1179.18 2145.47 1173.6 2136.35 1168.01 2127.24 1165.22 2116.2 1165.22 2103.24 1165.22 2090.32 1168.02 2079.28 1173.62 2070.13 1179.23 2060.98 1187.26 2055.03 1197.71 2052.27Z" fill-rule="evenodd"/><path d="M1239.34 2060.45C1242.63 2060.45 1245.68 2060.68 1248.49 2061.12 1251.3 2061.57 1254.41 2062.33 1257.81 2063.41L1254.8 2077.21 1249.65 2077.21C1249.5 2074.17 1249.04 2071.78 1248.25 2070.04 1247.46 2068.3 1246.34 2067.06 1244.87 2066.31 1243.4 2065.55 1241.45 2065.18 1239.01 2065.18 1236.04 2065.18 1233.43 2065.79 1231.17 2067 1228.92 2068.22 1227.2 2069.88 1226.01 2071.97 1224.83 2074.07 1224.24 2076.4 1224.24 2078.98 1224.24 2081.67 1224.95 2084.02 1226.36 2086.04 1227.78 2088.07 1230.49 2090.46 1234.5 2093.22 1238.01 2095.65 1240.69 2097.83 1242.53 2099.74 1244.38 2101.66 1245.74 2103.69 1246.61 2105.84 1247.49 2107.99 1247.93 2110.47 1247.93 2113.3 1247.93 2117.67 1246.88 2121.55 1244.79 2124.93 1242.69 2128.32 1239.74 2130.93 1235.92 2132.77 1232.11 2134.62 1227.77 2135.54 1222.9 2135.54 1219.61 2135.54 1216.05 2135.27 1212.24 2134.73 1208.42 2134.2 1205.01 2133.52 1202.01 2132.69L1205.23 2117.92 1210.38 2117.92C1210.38 2122.29 1211.4 2125.54 1213.42 2127.67 1215.44 2129.8 1218.57 2130.87 1222.79 2130.87 1227.66 2130.87 1231.49 2129.54 1234.29 2126.89 1237.08 2124.24 1238.48 2120.55 1238.48 2115.83 1238.48 2113.64 1238.09 2111.72 1237.32 2110.05 1236.55 2108.39 1235.39 2106.8 1233.83 2105.27 1232.27 2103.75 1230.03 2102.01 1227.09 2100.04 1224.44 2098.25 1222.24 2096.48 1220.48 2094.75 1218.73 2093.01 1217.33 2091.07 1216.29 2088.92 1215.25 2086.77 1214.74 2084.37 1214.74 2081.72 1214.74 2077.5 1215.76 2073.77 1217.8 2070.55 1219.84 2067.33 1222.72 2064.84 1226.44 2063.08 1230.17 2061.33 1234.47 2060.45 1239.34 2060.45Z" fill-rule="evenodd"/><text fill="#000000" fill-opacity="0" font-family="Arial,Arial_MSFontService,sans-serif" font-size="75.0879" x="1202.01" y="2126.15">𝑆</text><path d="M1323.52 2068.67 1331.15 2068.67 1331.15 2099.61 1360.42 2099.61 1360.42 2106.75 1331.15 2106.75 1331.15 2137.69 1323.52 2137.69 1323.52 2106.75 1294.25 2106.75 1294.25 2099.61 1323.52 2099.61Z" fill-rule="evenodd"/><text fill="#000000" fill-opacity="0" font-family="Arial,Arial_MSFontService,sans-serif" font-size="69.0186" x="1294.25" y="2129.06">+</text><path d="M1430.06 2088.7C1428.34 2088.7 1426.65 2089.25 1424.98 2090.34 1423.32 2091.43 1421.47 2093.24 1419.42 2095.77 1417.38 2098.29 1415.72 2100.88 1414.43 2103.53 1413.14 2106.18 1412.05 2109.56 1411.15 2113.68L1410.67 2115.94C1410.13 2118.44 1409.86 2120.88 1409.86 2123.24 1409.86 2126.07 1410.48 2128.11 1411.72 2129.36 1412.95 2130.62 1415 2131.24 1417.87 2131.24 1419.34 2131.24 1420.73 2131 1422.06 2130.52 1423.38 2130.03 1424.73 2129.24 1426.11 2128.13 1427.49 2127.02 1428.8 2125.56 1430.03 2123.75 1431.27 2121.94 1432.41 2119.71 1433.44 2117.06 1434.48 2114.41 1435.29 2111.58 1435.86 2108.55 1436.43 2105.52 1436.72 2102.63 1436.72 2099.88 1436.72 2096.15 1436.19 2093.36 1435.14 2091.5 1434.08 2089.63 1432.39 2088.7 1430.06 2088.7ZM1420.66 2057.82 1423.78 2057.82 1414.32 2095.42 1415.02 2095.63C1418.49 2090.98 1421.75 2087.61 1424.8 2085.53 1427.84 2083.46 1430.88 2082.42 1433.93 2082.42 1437.83 2082.42 1440.86 2083.91 1443.03 2086.88 1445.2 2089.85 1446.28 2094.04 1446.28 2099.45 1446.28 2105.35 1445.09 2111.16 1442.71 2116.88 1440.33 2122.59 1437.02 2127.12 1432.8 2130.46 1428.57 2133.81 1423.85 2135.49 1418.62 2135.49 1413.86 2135.49 1409.63 2134.32 1405.94 2131.99L1401 2135.49 1397.56 2134.63 1411.48 2073.23C1412.3 2069.58 1412.71 2066.93 1412.71 2065.29 1412.71 2063.78 1412.25 2062.73 1411.34 2062.12 1410.43 2061.51 1408.79 2061.17 1406.43 2061.1L1407.07 2058.3Z" fill-rule="evenodd"/><text fill="#000000" fill-opacity="0" font-family="Arial,Arial_MSFontService,sans-serif" font-size="77.666" x="1397.56" y="2125.78">𝑏</text><path d="M1596.81 2086.61C1592.48 2086.61 1589.16 2088.49 1586.85 2092.25 1584.54 2096.01 1583.39 2101.36 1583.39 2108.31 1583.39 2115.68 1584.56 2121.35 1586.91 2125.31 1589.25 2129.26 1592.61 2131.24 1596.98 2131.24 1599.38 2131.24 1601.42 2130.66 1603.1 2129.5 1604.78 2128.33 1606.15 2126.77 1607.21 2124.8 1608.26 2122.83 1609.03 2120.55 1609.49 2117.95 1609.96 2115.35 1610.19 2112.64 1610.19 2109.81 1610.19 2104.55 1609.61 2100.18 1608.44 2096.71 1607.28 2093.23 1605.7 2090.68 1603.69 2089.05 1601.68 2087.42 1599.39 2086.61 1596.81 2086.61ZM1651.65 2082.37C1654.01 2082.37 1656.29 2082.48 1658.49 2082.71 1660.7 2082.95 1663.46 2083.4 1666.79 2084.08L1666.79 2095.04 1661.64 2095.04C1660.85 2092.89 1659.92 2091.2 1658.84 2089.97 1657.77 2088.73 1656.55 2087.86 1655.19 2087.36 1653.83 2086.86 1652.17 2086.61 1650.2 2086.61 1647.33 2086.61 1645.05 2087.28 1643.35 2088.62 1641.65 2089.97 1640.8 2091.8 1640.8 2094.13 1640.8 2095.78 1641.14 2097.14 1641.82 2098.21 1642.5 2099.28 1643.55 2100.29 1644.99 2101.22 1646.42 2102.15 1648.94 2103.38 1652.56 2104.92 1656.21 2106.5 1659.03 2107.95 1661.02 2109.27 1663.01 2110.6 1664.56 2112.14 1665.69 2113.89 1666.82 2115.65 1667.38 2117.74 1667.38 2120.18 1667.38 2123.01 1666.9 2125.39 1665.93 2127.32 1664.97 2129.26 1663.61 2130.83 1661.85 2132.05 1660.1 2133.27 1658.01 2134.14 1655.59 2134.68 1653.18 2135.22 1650.54 2135.49 1647.67 2135.49 1644.66 2135.49 1641.75 2135.26 1638.92 2134.81 1636.09 2134.37 1633.33 2133.78 1630.64 2133.07L1630.64 2121.84 1635.91 2121.84C1636.88 2125.14 1638.31 2127.53 1640.21 2129.01 1642.1 2130.5 1644.72 2131.24 1648.05 2131.24 1649.34 2131.24 1650.6 2131.11 1651.83 2130.84 1653.07 2130.57 1654.17 2130.12 1655.14 2129.5 1656.1 2128.87 1656.87 2128.02 1657.45 2126.95 1658.02 2125.87 1658.31 2124.53 1658.31 2122.92 1658.31 2121.09 1657.95 2119.61 1657.23 2118.46 1656.52 2117.31 1655.41 2116.27 1653.9 2115.32 1652.4 2114.37 1649.75 2113.09 1645.95 2111.48 1642.69 2110.12 1640.08 2108.79 1638.11 2107.5 1636.14 2106.21 1634.59 2104.69 1633.46 2102.94 1632.34 2101.18 1631.77 2099.11 1631.77 2096.71 1631.77 2093.77 1632.57 2091.22 1634.16 2089.05 1635.76 2086.89 1638.06 2085.23 1641.06 2084.08 1644.07 2082.94 1647.6 2082.37 1651.65 2082.37ZM1597.03 2082.37C1604.69 2082.37 1610.49 2084.59 1614.43 2089.05 1618.37 2093.51 1620.34 2099.91 1620.34 2108.25 1620.34 2114.2 1619.36 2119.21 1617.39 2123.29 1615.42 2127.38 1612.62 2130.43 1609.01 2132.45 1605.39 2134.47 1601.11 2135.49 1596.17 2135.49 1588.72 2135.49 1583.04 2133.29 1579.12 2128.91 1575.2 2124.52 1573.24 2118.03 1573.24 2109.44 1573.24 2103.53 1574.27 2098.53 1576.32 2094.45 1578.38 2090.37 1581.2 2087.33 1584.78 2085.35 1588.36 2083.36 1592.45 2082.37 1597.03 2082.37ZM1548.19 2082.37C1551.13 2082.37 1553.84 2082.54 1556.33 2082.88 1558.82 2083.22 1561.31 2083.76 1563.82 2084.51L1563.82 2095.74 1557 2095.74C1556.39 2093.41 1555.64 2091.58 1554.74 2090.23 1553.85 2088.89 1552.81 2087.95 1551.63 2087.41 1550.45 2086.88 1548.98 2086.61 1547.22 2086.61 1544.72 2086.61 1542.5 2087.41 1540.56 2089.03 1538.63 2090.64 1537.1 2093.09 1535.97 2096.38 1534.84 2099.68 1534.28 2103.71 1534.28 2108.47 1534.28 2111.51 1534.49 2114.3 1534.92 2116.82 1535.35 2119.35 1536.09 2121.5 1537.13 2123.29 1538.16 2125.08 1539.54 2126.48 1541.26 2127.48 1542.98 2128.49 1545.11 2128.99 1547.65 2128.99 1550.12 2128.99 1552.43 2128.5 1554.56 2127.54 1556.69 2126.57 1558.9 2124.87 1561.19 2122.43L1564.25 2125.98C1562.42 2127.98 1560.81 2129.53 1559.42 2130.62 1558.02 2131.72 1556.52 2132.63 1554.93 2133.36 1553.34 2134.1 1551.76 2134.64 1550.2 2134.98 1548.65 2135.32 1546.96 2135.49 1545.13 2135.49 1538.36 2135.49 1533.19 2133.24 1529.61 2128.75 1526.03 2124.25 1524.24 2117.76 1524.24 2109.27 1524.24 2103.98 1525.24 2099.28 1527.24 2095.18 1529.25 2091.08 1532.06 2087.92 1535.68 2085.7 1539.29 2083.48 1543.46 2082.37 1548.19 2082.37Z" fill-rule="evenodd"/><text fill="#000000" fill-opacity="0" font-family="Arial,Arial_MSFontService,sans-serif" font-size="53.1201" x="1524.24" y="2128.85">cos</text><path d="M1725.62 2073.07 1704.61 2106.43 1704.61 2107.18 1725.62 2107.18 1725.62 2093.81C1725.62 2090.44 1725.67 2086.67 1725.78 2082.5 1725.88 2078.33 1726.01 2075.19 1726.15 2073.07ZM1833.13 2065.77C1831.13 2065.77 1829.34 2066.23 1827.76 2067.14 1826.19 2068.05 1824.97 2069.31 1824.11 2070.93 1823.25 2072.54 1822.82 2074.38 1822.82 2076.46 1822.82 2078.53 1823.24 2080.39 1824.08 2082.02 1824.93 2083.65 1826.14 2084.92 1827.74 2085.83 1829.33 2086.74 1831.13 2087.2 1833.13 2087.2 1835.18 2087.2 1836.99 2086.74 1838.59 2085.83 1840.18 2084.92 1841.41 2083.65 1842.27 2082.02 1843.12 2080.39 1843.55 2078.53 1843.55 2076.46 1843.55 2074.38 1843.12 2072.54 1842.27 2070.93 1841.41 2069.31 1840.18 2068.05 1838.59 2067.14 1836.99 2066.23 1835.18 2065.77 1833.13 2065.77ZM1727.17 2060.94 1734.85 2060.94 1734.85 2107.18 1735.98 2107.18C1738.06 2107.18 1739.55 2107.03 1740.44 2106.72 1741.34 2106.42 1742.08 2105.88 1742.67 2105.11 1743.26 2104.34 1743.81 2103.08 1744.31 2101.33L1748.39 2101.33 1747.74 2112.39 1734.85 2112.39 1734.85 2121.2C1734.85 2123.6 1734.93 2125.35 1735.1 2126.46 1735.26 2127.57 1735.53 2128.45 1735.9 2129.09 1736.28 2129.74 1736.83 2130.28 1737.57 2130.71 1738.3 2131.14 1739.49 2131.56 1741.14 2131.99L1741.14 2134.63 1719.33 2134.63 1719.33 2131.99C1721.55 2131.42 1723.04 2130.79 1723.79 2130.09 1724.54 2129.39 1725.03 2128.4 1725.27 2127.11 1725.5 2125.82 1725.62 2123.85 1725.62 2121.2L1725.62 2112.39 1695.75 2112.39 1695.75 2108.36ZM1833.35 2060.45C1836.43 2060.45 1839.18 2061.13 1841.59 2062.49 1844.01 2063.85 1845.89 2065.75 1847.23 2068.19 1848.58 2070.62 1849.25 2073.38 1849.25 2076.46 1849.25 2079.5 1848.54 2082.25 1847.13 2084.7 1845.71 2087.16 1843.75 2089.08 1841.24 2090.48 1838.74 2091.87 1835.93 2092.57 1832.81 2092.57 1829.7 2092.57 1826.95 2091.87 1824.57 2090.48 1822.19 2089.08 1820.35 2087.16 1819.06 2084.7 1817.77 2082.25 1817.13 2079.48 1817.13 2076.4 1817.13 2073.36 1817.82 2070.61 1819.2 2068.16 1820.58 2065.71 1822.5 2063.81 1824.97 2062.47 1827.44 2061.12 1830.23 2060.45 1833.35 2060.45ZM1798.54 2057.77 1802.73 2057.77 1801.92 2070.23 1771.04 2070.23 1771.04 2093.81C1772.9 2093.02 1774.92 2092.43 1777.11 2092.03 1779.29 2091.64 1781.48 2091.44 1783.66 2091.44 1787.92 2091.44 1791.7 2092.31 1794.99 2094.05 1798.29 2095.78 1800.83 2098.26 1802.62 2101.46 1804.41 2104.66 1805.31 2108.38 1805.31 2112.6 1805.31 2117.4 1804.3 2121.52 1802.3 2124.96 1800.29 2128.4 1797.39 2131.01 1793.6 2132.8 1789.8 2134.59 1785.31 2135.49 1780.12 2135.49 1773.92 2135.49 1767.44 2134.21 1760.67 2131.67L1760.67 2120.29 1767.17 2120.29C1768.25 2123.94 1769.87 2126.62 1772.03 2128.34 1774.2 2130.06 1777 2130.92 1780.44 2130.92 1785.2 2130.92 1788.8 2129.49 1791.24 2126.62 1793.67 2123.76 1794.89 2119.48 1794.89 2113.79 1794.89 2109.99 1794.24 2106.85 1792.95 2104.36 1791.66 2101.87 1789.93 2100.07 1787.74 2098.96 1785.56 2097.85 1783.02 2097.3 1780.12 2097.3 1777.68 2097.3 1775.59 2097.45 1773.83 2097.75 1772.08 2098.06 1770.2 2098.53 1768.19 2099.18L1763.9 2096.65 1763.9 2061.31 1793.49 2061.31C1794.71 2061.31 1795.59 2061.21 1796.12 2061.02 1796.66 2060.82 1797.09 2060.51 1797.41 2060.1 1797.73 2059.69 1798.11 2058.91 1798.54 2057.77Z" fill-rule="evenodd"/><text fill="#000000" fill-opacity="0" font-family="Arial,Arial_MSFontService,sans-serif" font-size="77.7197" x="1695.75" y="2125.77">45°</text><path d="M2950.81 2052.27C2961.27 2055.03 2969.29 2060.98 2974.9 2070.13 2980.5 2079.28 2983.3 2090.32 2983.3 2103.24 2983.3 2116.2 2980.51 2127.24 2974.93 2136.35 2969.34 2145.47 2961.3 2151.4 2950.81 2154.16L2949.52 2150.02C2957.79 2147.27 2963.94 2141.82 2967.97 2133.7 2972 2125.57 2974.01 2115.24 2974.01 2102.71 2974.01 2090.6 2972.01 2080.55 2968 2072.55 2963.99 2064.54 2957.77 2059.16 2949.36 2056.41ZM2690.42 2052.27 2691.87 2056.41C2683.49 2059.16 2677.29 2064.54 2673.26 2072.55 2669.23 2080.55 2667.22 2090.6 2667.22 2102.71 2667.22 2115.24 2669.23 2125.57 2673.26 2133.7 2677.29 2141.82 2683.44 2147.27 2691.71 2150.02L2690.42 2154.16C2679.93 2151.4 2671.89 2145.47 2666.3 2136.35 2660.72 2127.24 2657.92 2116.2 2657.92 2103.24 2657.92 2090.32 2660.73 2079.28 2666.33 2070.13 2671.93 2060.98 2679.96 2055.03 2690.42 2052.27Z" fill-rule="evenodd"/><path d="M2732.04 2060.45C2735.33 2060.45 2738.39 2060.68 2741.2 2061.12 2744.01 2061.57 2747.12 2062.33 2750.52 2063.41L2747.51 2077.21 2742.35 2077.21C2742.21 2074.17 2741.74 2071.78 2740.96 2070.04 2740.17 2068.3 2739.04 2067.06 2737.57 2066.31 2736.1 2065.55 2734.15 2065.18 2731.72 2065.18 2728.75 2065.18 2726.13 2065.79 2723.88 2067 2721.62 2068.22 2719.9 2069.88 2718.72 2071.97 2717.54 2074.07 2716.95 2076.4 2716.95 2078.98 2716.95 2081.67 2717.66 2084.02 2719.07 2086.04 2720.48 2088.07 2723.2 2090.46 2727.21 2093.22 2730.72 2095.65 2733.39 2097.83 2735.24 2099.74 2737.08 2101.66 2738.44 2103.69 2739.32 2105.84 2740.2 2107.99 2740.63 2110.47 2740.63 2113.3 2740.63 2117.67 2739.59 2121.55 2737.49 2124.93 2735.4 2128.32 2732.44 2130.93 2728.63 2132.77 2724.82 2134.62 2720.47 2135.54 2715.6 2135.54 2712.31 2135.54 2708.76 2135.27 2704.94 2134.73 2701.13 2134.2 2697.72 2133.52 2694.71 2132.69L2697.93 2117.92 2703.09 2117.92C2703.09 2122.29 2704.1 2125.54 2706.12 2127.67 2708.15 2129.8 2711.27 2130.87 2715.5 2130.87 2720.37 2130.87 2724.2 2129.54 2726.99 2126.89 2729.78 2124.24 2731.18 2120.55 2731.18 2115.83 2731.18 2113.64 2730.8 2111.72 2730.03 2110.05 2729.26 2108.39 2728.09 2106.8 2726.54 2105.27 2724.98 2103.75 2722.73 2102.01 2719.79 2100.04 2717.14 2098.25 2714.94 2096.48 2713.19 2094.75 2711.43 2093.01 2710.04 2091.07 2709 2088.92 2707.96 2086.77 2707.44 2084.37 2707.44 2081.72 2707.44 2077.5 2708.46 2073.77 2710.5 2070.55 2712.54 2067.33 2715.43 2064.84 2719.15 2063.08 2722.87 2061.33 2727.17 2060.45 2732.04 2060.45Z" fill-rule="evenodd"/><text fill="#000000" fill-opacity="0" font-family="Arial,Arial_MSFontService,sans-serif" font-size="75.0879" x="2694.71" y="2126.15">𝑆</text><path d="M2816.22 2068.67 2823.85 2068.67 2823.85 2099.61 2853.12 2099.61 2853.12 2106.75 2823.85 2106.75 2823.85 2137.69 2816.22 2137.69 2816.22 2106.75 2786.95 2106.75 2786.95 2099.61 2816.22 2099.61Z" fill-rule="evenodd"/><text fill="#000000" fill-opacity="0" font-family="Arial,Arial_MSFontService,sans-serif" font-size="69.0186" x="2786.95" y="2129.06">+</text><path d="M2922.77 2088.7C2921.05 2088.7 2919.35 2089.25 2917.69 2090.34 2916.02 2091.43 2914.17 2093.24 2912.13 2095.77 2910.09 2098.29 2908.42 2100.88 2907.14 2103.53 2905.85 2106.18 2904.75 2109.56 2903.86 2113.68L2903.38 2115.94C2902.84 2118.44 2902.57 2120.88 2902.57 2123.24 2902.57 2126.07 2903.19 2128.11 2904.42 2129.36 2905.66 2130.62 2907.71 2131.24 2910.57 2131.24 2912.04 2131.24 2913.44 2131 2914.76 2130.52 2916.09 2130.03 2917.44 2129.24 2918.82 2128.13 2920.2 2127.02 2921.5 2125.56 2922.74 2123.75 2923.97 2121.94 2925.11 2119.71 2926.15 2117.06 2927.19 2114.41 2927.99 2111.58 2928.57 2108.55 2929.14 2105.52 2929.43 2102.63 2929.43 2099.88 2929.43 2096.15 2928.9 2093.36 2927.84 2091.5 2926.78 2089.63 2925.09 2088.7 2922.77 2088.7ZM2913.37 2057.82 2916.48 2057.82 2907.03 2095.42 2907.73 2095.63C2911.2 2090.98 2914.46 2087.61 2917.5 2085.53 2920.55 2083.46 2923.59 2082.42 2926.63 2082.42 2930.54 2082.42 2933.57 2083.91 2935.74 2086.88 2937.9 2089.85 2938.99 2094.04 2938.99 2099.45 2938.99 2105.35 2937.8 2111.16 2935.41 2116.88 2933.03 2122.59 2929.73 2127.12 2925.5 2130.46 2921.28 2133.81 2916.55 2135.49 2911.32 2135.49 2906.56 2135.49 2902.34 2134.32 2898.65 2131.99L2893.71 2135.49 2890.27 2134.63 2904.18 2073.23C2905 2069.58 2905.42 2066.93 2905.42 2065.29 2905.42 2063.78 2904.96 2062.73 2904.05 2062.12 2903.13 2061.51 2901.5 2061.17 2899.13 2061.1L2899.78 2058.3Z" fill-rule="evenodd"/><text fill="#000000" fill-opacity="0" font-family="Arial,Arial_MSFontService,sans-serif" font-size="77.666" x="2890.27" y="2125.78">𝑏</text><path d="M3031.52 2110.78 3097.69 2110.78 3097.69 2117.92 3031.52 2117.92ZM3031.52 2088.49 3097.69 2088.49 3097.69 2095.63 3031.52 2095.63Z" fill-rule="evenodd"/><text fill="#000000" fill-opacity="0" font-family="Arial,Arial_MSFontService,sans-serif" font-size="29.4336" x="3031.52" y="2114.24">=</text><path d="M3451.29 2052.27C3461.74 2055.03 3469.77 2060.98 3475.38 2070.13 3480.98 2079.28 3483.78 2090.32 3483.78 2103.24 3483.78 2116.2 3480.99 2127.24 3475.4 2136.35 3469.82 2145.47 3461.78 2151.4 3451.29 2154.16L3450 2150.02C3458.27 2147.27 3464.42 2141.82 3468.45 2133.7 3472.48 2125.57 3474.49 2115.24 3474.49 2102.71 3474.49 2090.6 3472.48 2080.55 3468.47 2072.55 3464.46 2064.54 3458.25 2059.16 3449.84 2056.41ZM3178.15 2052.27 3179.6 2056.41C3171.23 2059.16 3165.02 2064.54 3160.99 2072.55 3156.97 2080.55 3154.95 2090.6 3154.95 2102.71 3154.95 2115.24 3156.97 2125.57 3160.99 2133.7 3165.02 2141.82 3171.17 2147.27 3179.44 2150.02L3178.15 2154.16C3167.66 2151.4 3159.62 2145.47 3154.04 2136.35 3148.45 2127.24 3145.66 2116.2 3145.66 2103.24 3145.66 2090.32 3148.46 2079.28 3154.06 2070.13 3159.67 2060.98 3167.7 2055.03 3178.15 2052.27Z" fill-rule="evenodd"/><path d="M3198.77 2061.31 3247.22 2061.31 3243.52 2077.8 3238.36 2077.8C3238.22 2075.04 3237.99 2072.87 3237.69 2071.27 3237.38 2069.68 3236.95 2068.54 3236.4 2067.84 3235.84 2067.14 3235.17 2066.66 3234.39 2066.41 3233.6 2066.16 3232.42 2066.04 3230.84 2066.04L3214.3 2066.04 3207.91 2095.26 3217.95 2095.26C3219.53 2095.26 3220.83 2095.04 3221.87 2094.61 3222.91 2094.18 3223.88 2093.4 3224.77 2092.28 3225.67 2091.15 3226.78 2089.22 3228.1 2086.5L3232.99 2086.5 3227.78 2109.17 3223.05 2109.17C3223.05 2105.55 3222.94 2103.29 3222.7 2102.37 3222.47 2101.46 3222.02 2100.83 3221.36 2100.49 3220.7 2100.15 3219.38 2099.98 3217.41 2099.98L3206.89 2099.98 3202.64 2119C3201.89 2122.36 3201.51 2125.16 3201.51 2127.38 3201.51 2128.49 3201.69 2129.35 3202.05 2129.98 3202.41 2130.61 3202.95 2131.06 3203.66 2131.35 3204.38 2131.64 3205.61 2131.85 3207.37 2131.99L3206.78 2134.63 3184.7 2134.63 3185.29 2131.99C3186.65 2131.78 3187.67 2131.43 3188.35 2130.95 3189.04 2130.46 3189.61 2129.79 3190.07 2128.93 3190.54 2128.07 3190.97 2127.03 3191.36 2125.79 3191.76 2124.56 3192.35 2122.17 3193.14 2118.62L3202.27 2077.26C3203.05 2073.68 3203.45 2070.85 3203.45 2068.78 3203.45 2067.02 3203.04 2065.8 3202.21 2065.12 3201.39 2064.44 3200.05 2064.05 3198.18 2063.94Z" fill-rule="evenodd"/><text fill="#000000" fill-opacity="0" font-family="Arial,Arial_MSFontService,sans-serif" font-size="73.3154" x="3184.7" y="2125.46">𝐹</text><path d="M3314.71 2068.67 3322.34 2068.67 3322.34 2099.61 3351.61 2099.61 3351.61 2106.75 3322.34 2106.75 3322.34 2137.69 3314.71 2137.69 3314.71 2106.75 3285.44 2106.75 3285.44 2099.61 3314.71 2099.61Z" fill-rule="evenodd"/><text fill="#000000" fill-opacity="0" font-family="Arial,Arial_MSFontService,sans-serif" font-size="69.0186" x="3285.44" y="2129.06">+</text><path d="M3418.24 2086.61C3414.55 2086.61 3411.24 2088.09 3408.3 2091.07 3405.37 2094.04 3403.08 2098.02 3401.43 2103.02 3399.78 2108.01 3398.96 2113 3398.96 2117.98 3398.96 2121.7 3399.47 2124.48 3400.49 2126.33 3401.51 2128.17 3403.22 2129.09 3405.62 2129.09 3407.98 2129.09 3410.3 2128.07 3412.57 2126.03 3414.85 2123.99 3417.19 2121.08 3419.61 2117.3 3422.03 2113.53 3423.74 2109.17 3424.74 2104.23L3425.22 2101.92C3425.55 2100.45 3425.76 2099.18 3425.87 2098.1 3425.98 2097.03 3426.03 2095.86 3426.03 2094.61 3426.03 2091.85 3425.44 2089.83 3424.26 2088.54 3423.07 2087.25 3421.07 2086.61 3418.24 2086.61ZM3417.17 2082.37C3419.49 2082.37 3421.67 2082.63 3423.69 2083.14 3425.72 2083.66 3427.8 2084.59 3429.95 2085.91L3434.89 2082.37 3438.33 2083.23 3430.43 2117.28C3429.65 2120.68 3429.25 2123.33 3429.25 2125.23 3429.25 2126.66 3429.48 2127.7 3429.95 2128.34 3430.42 2128.99 3431.15 2129.31 3432.15 2129.31 3433.23 2129.31 3434.37 2128.87 3435.59 2127.99 3436.81 2127.12 3438.53 2125.44 3440.75 2122.97L3443.81 2125.98C3440.58 2129.42 3437.84 2131.86 3435.56 2133.31 3433.29 2134.76 3430.83 2135.49 3428.18 2135.49 3425.96 2135.49 3424.18 2134.75 3422.86 2133.28 3421.53 2131.82 3420.87 2129.86 3420.87 2127.43 3420.87 2125.46 3421.28 2123.36 3422.11 2121.15L3421.41 2120.93C3417.97 2125.94 3414.71 2129.61 3411.63 2131.94 3408.55 2134.27 3405.3 2135.43 3401.86 2135.43 3397.92 2135.43 3394.87 2133.95 3392.7 2130.97 3390.53 2128 3389.45 2123.83 3389.45 2118.46 3389.45 2112.3 3390.66 2106.38 3393.08 2100.71 3395.49 2095.03 3398.82 2090.56 3403.04 2087.28 3407.27 2084 3411.97 2082.37 3417.17 2082.37Z" fill-rule="evenodd"/><text fill="#000000" fill-opacity="0" font-family="Arial,Arial_MSFontService,sans-serif" font-size="53.1201" x="3389.45" y="2128.85">𝑎</text><path d="M3590 2086.61C3585.66 2086.61 3582.34 2088.49 3580.03 2092.25 3577.72 2096.01 3576.57 2101.36 3576.57 2108.31 3576.57 2115.68 3577.74 2121.35 3580.09 2125.31 3582.43 2129.26 3585.79 2131.24 3590.16 2131.24 3592.56 2131.24 3594.6 2130.66 3596.28 2129.5 3597.96 2128.33 3599.33 2126.77 3600.39 2124.8 3601.45 2122.83 3602.21 2120.55 3602.67 2117.95 3603.14 2115.35 3603.37 2112.64 3603.37 2109.81 3603.37 2104.55 3602.79 2100.18 3601.63 2096.71 3600.46 2093.23 3598.88 2090.68 3596.87 2089.05 3594.87 2087.42 3592.58 2086.61 3590 2086.61ZM3644.83 2082.37C3647.19 2082.37 3649.47 2082.48 3651.68 2082.71 3653.88 2082.95 3656.65 2083.4 3659.98 2084.08L3659.98 2095.04 3654.82 2095.04C3654.03 2092.89 3653.1 2091.2 3652.03 2089.97 3650.95 2088.73 3649.73 2087.86 3648.37 2087.36 3647.01 2086.86 3645.35 2086.61 3643.38 2086.61 3640.51 2086.61 3638.23 2087.28 3636.53 2088.62 3634.83 2089.97 3633.98 2091.8 3633.98 2094.13 3633.98 2095.78 3634.32 2097.14 3635 2098.21 3635.68 2099.28 3636.74 2100.29 3638.17 2101.22 3639.6 2102.15 3642.13 2103.38 3645.74 2104.92 3649.39 2106.5 3652.21 2107.95 3654.2 2109.27 3656.19 2110.6 3657.75 2112.14 3658.87 2113.89 3660 2115.65 3660.57 2117.74 3660.57 2120.18 3660.57 2123.01 3660.08 2125.39 3659.12 2127.32 3658.15 2129.26 3656.79 2130.83 3655.03 2132.05 3653.28 2133.27 3651.19 2134.14 3648.78 2134.68 3646.36 2135.22 3643.72 2135.49 3640.85 2135.49 3637.85 2135.49 3634.93 2135.26 3632.1 2134.81 3629.27 2134.37 3626.51 2133.78 3623.83 2133.07L3623.83 2121.84 3629.09 2121.84C3630.06 2125.14 3631.49 2127.53 3633.39 2129.01 3635.29 2130.5 3637.9 2131.24 3641.23 2131.24 3642.52 2131.24 3643.78 2131.11 3645.02 2130.84 3646.25 2130.57 3647.35 2130.12 3648.32 2129.5 3649.29 2128.87 3650.06 2128.02 3650.63 2126.95 3651.2 2125.87 3651.49 2124.53 3651.49 2122.92 3651.49 2121.09 3651.13 2119.61 3650.41 2118.46 3649.7 2117.31 3648.59 2116.27 3647.08 2115.32 3645.58 2114.37 3642.93 2113.09 3639.14 2111.48 3635.88 2110.12 3633.26 2108.79 3631.29 2107.5 3629.32 2106.21 3627.78 2104.69 3626.65 2102.94 3625.52 2101.18 3624.96 2099.11 3624.96 2096.71 3624.96 2093.77 3625.75 2091.22 3627.35 2089.05 3628.94 2086.89 3631.24 2085.23 3634.25 2084.08 3637.26 2082.94 3640.78 2082.37 3644.83 2082.37ZM3590.21 2082.37C3597.88 2082.37 3603.68 2084.59 3607.61 2089.05 3611.55 2093.51 3613.52 2099.91 3613.52 2108.25 3613.52 2114.2 3612.54 2119.21 3610.57 2123.29 3608.6 2127.38 3605.81 2130.43 3602.19 2132.45 3598.57 2134.47 3594.29 2135.49 3589.35 2135.49 3581.91 2135.49 3576.22 2133.29 3572.3 2128.91 3568.38 2124.52 3566.42 2118.03 3566.42 2109.44 3566.42 2103.53 3567.45 2098.53 3569.51 2094.45 3571.57 2090.37 3574.39 2087.33 3577.97 2085.35 3581.55 2083.36 3585.63 2082.37 3590.21 2082.37ZM3541.37 2082.37C3544.31 2082.37 3547.02 2082.54 3549.51 2082.88 3552 2083.22 3554.5 2083.76 3557 2084.51L3557 2095.74 3550.18 2095.74C3549.57 2093.41 3548.82 2091.58 3547.93 2090.23 3547.03 2088.89 3545.99 2087.95 3544.81 2087.41 3543.63 2086.88 3542.16 2086.61 3540.41 2086.61 3537.9 2086.61 3535.68 2087.41 3533.75 2089.03 3531.81 2090.64 3530.28 2093.09 3529.15 2096.38 3528.03 2099.68 3527.46 2103.71 3527.46 2108.47 3527.46 2111.51 3527.68 2114.3 3528.11 2116.82 3528.54 2119.35 3529.27 2121.5 3530.31 2123.29 3531.35 2125.08 3532.73 2126.48 3534.44 2127.48 3536.16 2128.49 3538.29 2128.99 3540.84 2128.99 3543.31 2128.99 3545.61 2128.5 3547.74 2127.54 3549.87 2126.57 3552.08 2124.87 3554.37 2122.43L3557.43 2125.98C3555.61 2127.98 3554 2129.53 3552.6 2130.62 3551.2 2131.72 3549.71 2132.63 3548.11 2133.36 3546.52 2134.1 3544.95 2134.64 3543.39 2134.98 3541.83 2135.32 3540.14 2135.49 3538.31 2135.49 3531.54 2135.49 3526.37 2133.24 3522.79 2128.75 3519.21 2124.25 3517.42 2117.76 3517.42 2109.27 3517.42 2103.98 3518.42 2099.28 3520.43 2095.18 3522.43 2091.08 3525.24 2087.92 3528.86 2085.7 3532.48 2083.48 3536.65 2082.37 3541.37 2082.37Z" fill-rule="evenodd"/><text fill="#000000" fill-opacity="0" font-family="Arial,Arial_MSFontService,sans-serif" font-size="53.1201" x="3517.42" y="2128.85">cos</text><path d="M3718.8 2073.07 3697.8 2106.43 3697.8 2107.18 3718.8 2107.18 3718.8 2093.81C3718.8 2090.44 3718.85 2086.67 3718.96 2082.5 3719.07 2078.33 3719.19 2075.19 3719.34 2073.07ZM3826.32 2065.77C3824.31 2065.77 3822.52 2066.23 3820.95 2067.14 3819.37 2068.05 3818.15 2069.31 3817.29 2070.93 3816.43 2072.54 3816 2074.38 3816 2076.46 3816 2078.53 3816.43 2080.39 3817.27 2082.02 3818.11 2083.65 3819.33 2084.92 3820.92 2085.83 3822.51 2086.74 3824.31 2087.2 3826.32 2087.2 3828.36 2087.2 3830.18 2086.74 3831.77 2085.83 3833.36 2084.92 3834.59 2083.65 3835.45 2082.02 3836.31 2080.39 3836.74 2078.53 3836.74 2076.46 3836.74 2074.38 3836.31 2072.54 3835.45 2070.93 3834.59 2069.31 3833.36 2068.05 3831.77 2067.14 3830.18 2066.23 3828.36 2065.77 3826.32 2065.77ZM3720.36 2060.94 3728.04 2060.94 3728.04 2107.18 3729.16 2107.18C3731.24 2107.18 3732.73 2107.03 3733.62 2106.72 3734.52 2106.42 3735.26 2105.88 3735.85 2105.11 3736.44 2104.34 3736.99 2103.08 3737.49 2101.33L3741.57 2101.33 3740.93 2112.39 3728.04 2112.39 3728.04 2121.2C3728.04 2123.6 3728.12 2125.35 3728.28 2126.46 3728.44 2127.57 3728.71 2128.45 3729.08 2129.09 3729.46 2129.74 3730.02 2130.28 3730.75 2130.71 3731.48 2131.14 3732.67 2131.56 3734.32 2131.99L3734.32 2134.63 3712.51 2134.63 3712.51 2131.99C3714.73 2131.42 3716.22 2130.79 3716.97 2130.09 3717.72 2129.39 3718.22 2128.4 3718.45 2127.11 3718.68 2125.82 3718.8 2123.85 3718.8 2121.2L3718.8 2112.39 3688.94 2112.39 3688.94 2108.36ZM3826.53 2060.45C3829.61 2060.45 3832.36 2061.13 3834.78 2062.49 3837.19 2063.85 3839.07 2065.75 3840.42 2068.19 3841.76 2070.62 3842.43 2073.38 3842.43 2076.46 3842.43 2079.5 3841.72 2082.25 3840.31 2084.7 3838.89 2087.16 3836.93 2089.08 3834.43 2090.48 3831.92 2091.87 3829.11 2092.57 3825.99 2092.57 3822.88 2092.57 3820.13 2091.87 3817.75 2090.48 3815.37 2089.08 3813.53 2087.16 3812.24 2084.7 3810.96 2082.25 3810.31 2079.48 3810.31 2076.4 3810.31 2073.36 3811 2070.61 3812.38 2068.16 3813.76 2065.71 3815.68 2063.81 3818.15 2062.47 3820.62 2061.12 3823.42 2060.45 3826.53 2060.45ZM3791.72 2057.77 3795.91 2057.77 3795.11 2070.23 3764.22 2070.23 3764.22 2093.81C3766.08 2093.02 3768.11 2092.43 3770.29 2092.03 3772.48 2091.64 3774.66 2091.44 3776.84 2091.44 3781.11 2091.44 3784.88 2092.31 3788.18 2094.05 3791.47 2095.78 3794.01 2098.26 3795.8 2101.46 3797.59 2104.66 3798.49 2108.38 3798.49 2112.6 3798.49 2117.4 3797.49 2121.52 3795.48 2124.96 3793.48 2128.4 3790.58 2131.01 3786.78 2132.8 3782.99 2134.59 3778.49 2135.49 3773.3 2135.49 3767.1 2135.49 3760.62 2134.21 3753.86 2131.67L3753.86 2120.29 3760.36 2120.29C3761.43 2123.94 3763.05 2126.62 3765.22 2128.34 3767.38 2130.06 3770.18 2130.92 3773.62 2130.92 3778.38 2130.92 3781.98 2129.49 3784.42 2126.62 3786.85 2123.76 3788.07 2119.48 3788.07 2113.79 3788.07 2109.99 3787.43 2106.85 3786.14 2104.36 3784.85 2101.87 3783.11 2100.07 3780.93 2098.96 3778.74 2097.85 3776.2 2097.3 3773.3 2097.3 3770.86 2097.3 3768.77 2097.45 3767.02 2097.75 3765.26 2098.06 3763.38 2098.53 3761.38 2099.18L3757.08 2096.65 3757.08 2061.31 3786.67 2061.31C3787.89 2061.31 3788.77 2061.21 3789.31 2061.02 3789.84 2060.82 3790.27 2060.51 3790.59 2060.1 3790.92 2059.69 3791.29 2058.91 3791.72 2057.77Z" fill-rule="evenodd"/><text fill="#000000" fill-opacity="0" font-family="Arial,Arial_MSFontService,sans-serif" font-size="77.7197" x="3688.94" y="2125.77">45°</text></g></svg>